<svg width="1024" height="1024" viewBox="0 0 1024 1024" xmlns="http://www.w3.org/2000/svg">
  <rect width="1024" height="1024" rx="230" fill="#E1F5EE"/>

  <!-- Leaf drop shape centered -->
  <path d="M512,140 C512,140 720,224 720,508 C720,676 640,764 512,784 C384,764 304,676 304,508 C304,224 512,140 512,140 Z" fill="#1D9E75"/>
  <path d="M512,140 C512,140 720,224 720,508 C720,676 640,764 512,784 L512,140 Z" fill="#0F6E56"/>

  <!-- Center vein -->
  <line x1="512" y1="148" x2="512" y2="776" stroke="#E1F5EE" stroke-width="14" stroke-linecap="round"/>

  <!-- Right veins -->
  <path d="M512,320 Q588,290 624,244" fill="none" stroke="#E1F5EE" stroke-width="10" stroke-linecap="round" opacity="0.75"/>
  <path d="M512,408 Q582,378 616,334" fill="none" stroke="#E1F5EE" stroke-width="10" stroke-linecap="round" opacity="0.75"/>
  <path d="M512,496 Q574,468 604,428" fill="none" stroke="#E1F5EE" stroke-width="9"  stroke-linecap="round" opacity="0.65"/>
  <path d="M512,580 Q564,556 590,520" fill="none" stroke="#E1F5EE" stroke-width="8"  stroke-linecap="round" opacity="0.55"/>

  <!-- Circuit nodes left -->
  <circle cx="400" cy="308" r="30" fill="none" stroke="#E1F5EE" stroke-width="12"/>
  <circle cx="355" cy="404" r="30" fill="none" stroke="#E1F5EE" stroke-width="12"/>
  <circle cx="390" cy="500" r="30" fill="none" stroke="#E1F5EE" stroke-width="12"/>
  <circle cx="355" cy="596" r="30" fill="none" stroke="#E1F5EE" stroke-width="12"/>

  <!-- Circuit lines -->
  <polyline points="400,338 400,374 355,376" fill="none" stroke="#E1F5EE" stroke-width="12" stroke-linecap="round" stroke-linejoin="round"/>
  <polyline points="355,434 355,466 390,470" fill="none" stroke="#E1F5EE" stroke-width="12" stroke-linecap="round" stroke-linejoin="round"/>
  <polyline points="390,530 390,562 355,566" fill="none" stroke="#E1F5EE" stroke-width="12" stroke-linecap="round" stroke-linejoin="round"/>
  <line x1="400" y1="278" x2="476" y2="278" stroke="#E1F5EE" stroke-width="10" stroke-linecap="round" opacity="0.5"/>
</svg>
