<svg width="600" height="200" viewBox="0 0 600 200" xmlns="http://www.w3.org/2000/svg">
  <rect width="600" height="200" fill="#f0f8f4"/>

  <!-- Leaf drop icon -->
  <path d="M100,20 C100,20 155,42 155,100 C155,138 136,158 100,162 C64,158 45,138 45,100 C45,42 100,20 100,20 Z" fill="#1D9E75"/>
  <path d="M100,20 C100,20 155,42 155,100 C155,138 136,158 100,162 L100,20 Z" fill="#0F6E56"/>
  <line x1="100" y1="24" x2="100" y2="158" stroke="#E1F5EE" stroke-width="2.5" stroke-linecap="round"/>
  <path d="M100,70 Q122,62 132,50" fill="none" stroke="#E1F5EE" stroke-width="1.6" stroke-linecap="round" opacity="0.75"/>
  <path d="M100,92 Q120,85 128,74" fill="none" stroke="#E1F5EE" stroke-width="1.6" stroke-linecap="round" opacity="0.75"/>
  <path d="M100,114 Q116,108 122,98" fill="none" stroke="#E1F5EE" stroke-width="1.4" stroke-linecap="round" opacity="0.65"/>
  <circle cx="72" cy="68"  r="5.5" fill="none" stroke="#E1F5EE" stroke-width="2"/>
  <circle cx="62" cy="92"  r="5.5" fill="none" stroke="#E1F5EE" stroke-width="2"/>
  <circle cx="70" cy="116" r="5.5" fill="none" stroke="#E1F5EE" stroke-width="2"/>
  <polyline points="72,73.5 72,85 62,88"   fill="none" stroke="#E1F5EE" stroke-width="2" stroke-linecap="round" stroke-linejoin="round"/>
  <polyline points="62,97.5 62,108 70,111" fill="none" stroke="#E1F5EE" stroke-width="2" stroke-linecap="round" stroke-linejoin="round"/>
  <line x1="72" y1="62.5" x2="90" y2="62.5" stroke="#E1F5EE" stroke-width="1.5" stroke-linecap="round" opacity="0.55"/>

  <!-- Wordmark -->
  <text font-family="Arial, Helvetica, sans-serif" font-weight="700" font-size="52" y="100">
    <tspan x="178" fill="#0C447C">Calor</tspan><tspan fill="#1D9E75" dx="6"> Eye</tspan>
  </text>

  <!-- Tagline -->
  <text x="178" y="126" font-family="Arial, Helvetica, sans-serif" font-weight="400" font-size="13" fill="#378ADD" letter-spacing="3">FOOD &#183; AI &#183; HEALTH</text>
  <line x1="178" y1="138" x2="510" y2="138" stroke="#9FE1CB" stroke-width="0.8"/>

  <!-- Slogan moi -->
  <text x="178" y="158" font-family="Arial, Helvetica, sans-serif" font-size="14" fill="#5F5E5A">Nh&#7853;n di&#7879;n t&#7913;c th&#236;, s&#7889;ng kh&#7887;e m&#7895;i ng&#224;y</text>
</svg>
